<?xml version="1.0" standalone="no"?>
<!DOCTYPE svg PUBLIC "-//W3C//DTD SVG 1.1//EN" "http://www.w3.org/Graphics/SVG/1.1/DTD/svg11.dtd" >
<svg xmlns="http://www.w3.org/2000/svg">
<metadata>
This is a custom SVG webfont generated by Font Squirrel.
Copyright   : c 2001 Ray Larabie See attached license agreement for more information If EULA is missing visit wwwlarabiefontscom for an updated version of this font
Designer    : Ray Larabie
Foundry     : Ray Larabie
Foundry URL : httpwwwlarabiefontscom
</metadata>
<defs>
<font id="webfontA42Tmdpv" horiz-adv-x="618" >
<font-face units-per-em="2048" ascent="1741" descent="-307" />
<missing-glyph horiz-adv-x="278" />
<glyph unicode=" "  horiz-adv-x="278" />
<glyph unicode="&#x09;" horiz-adv-x="278" />
<glyph unicode="&#xa0;" horiz-adv-x="278" />
<glyph unicode="!" horiz-adv-x="342" d="M80 182h184v-182h-184v182zM264 918l-47 -556h-92l-45 549v906h184v-899z" />
<glyph unicode="&#x22;" horiz-adv-x="387" d="M317 1817h156v-181l-43 -274h-70l-43 274v181zM63 1817h154v-181l-43 -274h-68l-43 274v181z" />
<glyph unicode="#" horiz-adv-x="835" d="M297 1047h186l54 188h-191zM111 1358h145l106 405h125l-106 -405h186l107 405h121l-107 -405h154l-31 -123h-154l-51 -188h156l-35 -121h-152l-112 -404h-121l111 404h-191l-108 -404h-121l108 404h-145l31 121h145l53 188h-145z" />
<glyph unicode="$" horiz-adv-x="700" d="M231 1284q0 -68 72 -176v522q-72 -16 -72 -100v-246zM459 496q0 94 -72 215v-525q72 18 72 101v209zM303 2q-254 31 -254 397v226h182v-338q0 -84 72 -101v641q-129 113 -191.5 238t-62.5 235v117q0 367 254 398v100h84v-100q254 -27 254 -398v-166h-182v279 q0 82 -72 100v-633q10 -14 23.5 -27.5t25.5 -27.5q205 -217 205 -383v-160q0 -371 -254 -397v-115h-84v115z" />
<glyph unicode="%" horiz-adv-x="1132" d="M938 606q0 76 -66 76q-63 0 -63 -76v-405q0 -76 63 -76q66 0 66 76v405zM1063 276q0 -276 -191 -276q-193 0 -192 276v252q0 279 192 279q190 0 191 -279v-252zM311 1620q0 74 -65 74q-63 0 -64 -74v-408q0 -74 64 -73q66 0 65 73v408zM436 1290q0 -276 -190 -276 q-193 0 -193 276v250q0 279 193 279q190 0 190 -279v-250zM1001 1817l-763 -1817h-113l766 1817h110z" />
<glyph unicode="&#x26;" horiz-adv-x="790" d="M313 1161q88 182 88 332v37q0 106 -67 106q-68 0 -68 -106v-39q0 -70 12 -151t35 -179zM287 770q-74 -102 -74 -299v-139q0 -150 113 -150q104 0 129 45zM555 487l49 140h152l-123 -426q18 -43 74 -43q25 0 49 8v-166h-92q-100 0 -127 76q-70 -76 -211 -76 q-293 0 -293 399v74q0 135 41 255t133 237q-123 328 -123 508q0 344 250 344q229 0 229 -344q0 -217 -166 -506z" />
<glyph unicode="'" horiz-adv-x="212" d="M63 1817h154v-181l-43 -274h-68l-43 274v181z" />
<glyph unicode="(" horiz-adv-x="432" d="M160 182q0 -254 194 -254v-110q-305 0 -305 399v1382q0 399 305 400v-109q-195 0 -194 -254v-1454z" />
<glyph unicode=")" horiz-adv-x="432" d="M244 1636q0 254 -195 254v109q303 0 303 -400v-1382q0 -399 -303 -399v110q195 0 195 254v1454z" />
<glyph unicode="*" horiz-adv-x="714" d="M551 1167l-131 -221l250 58v-203l-250 55l131 -217l-193 -64l-26 252l-168 -188l-119 162l234 100l-234 103l119 163l168 -192l26 256z" />
<glyph unicode="+" horiz-adv-x="608" d="M377 1194v-195h192v-145h-192v-195h-146v195h-194v145h194v195h146z" />
<glyph unicode="," horiz-adv-x="256" d="M41 217h164v-180q0 -86 -34 -126t-103 -40v80q74 0 73 78h-100v188z" />
<glyph unicode="-" horiz-adv-x="376" d="M37 999h303v-145h-303v145z" />
<glyph unicode="." horiz-adv-x="256" d="M41 217h164v-217h-164v217z" />
<glyph unicode="/" horiz-adv-x="477" d="M465 1817l-348 -1817h-113l350 1817h111z" />
<glyph unicode="0" horiz-adv-x="690" d="M436 1530q0 106 -90 106q-92 0 -92 -106v-1243q0 -104 92 -105q90 0 90 105v1243zM618 399q0 -399 -272 -399q-274 0 -274 399v1018q0 399 274 400q272 0 272 -400v-1018z" />
<glyph unicode="1" horiz-adv-x="389" d="M35 1636q98 0 98 138v43h182v-1817h-182v1454h-98v182z" />
<glyph unicode="2" horiz-adv-x="690" d="M72 346q0 238 180 504q92 135 138 259t46 241v180q0 106 -90 106q-92 0 -92 -106v-279h-182v166q0 399 274 400q272 0 272 -400v-100q0 -248 -180 -514q-92 -135 -137 -254t-45 -230v-137h362v-182h-546v346z" />
<glyph unicode="3" horiz-adv-x="690" d="M436 1530q0 106 -90 106q-92 0 -92 -106v-279h-182v166q0 399 274 400q272 0 272 -400v-182q0 -246 -112 -309q113 -63 112 -308v-219q0 -399 -272 -399q-274 0 -274 399v226h182v-338q0 -104 92 -105q90 0 90 105v444q0 49 -21.5 77t-66.5 28h-59v182h67q80 0 80 104 v408z" />
<glyph unicode="4" horiz-adv-x="686" d="M188 545h201v760l-51 -220zM16 555l373 1262h170v-1272h92v-183h-92v-362h-170v362h-373v193z" />
<glyph unicode="5" horiz-adv-x="694" d="M72 1817h546v-181h-364v-546q43 37 96 36q272 0 273 -399v-328q0 -399 -273 -399q-272 0 -272 399v226h180v-338q0 -104 92 -105q90 0 90 105v553q0 121 -108 121q-90 0 -105 -82h-155v938z" />
<glyph unicode="6" horiz-adv-x="690" d="M436 834q0 106 -90 106t-92 -98v-555q0 -104 92 -105q90 0 90 105v547zM618 1251h-182v279q0 106 -90 106q-92 0 -92 -106v-443q41 35 92 35q272 0 272 -399v-324q0 -399 -272 -399q-274 0 -274 399v1018q0 399 274 400q272 0 272 -400v-166z" />
<glyph unicode="7" horiz-adv-x="598" d="M25 1817h546v-201q-150 -338 -207 -742.5t-59 -873.5h-180q0 459 69.5 868.5t219.5 767.5h-389v181z" />
<glyph unicode="8" horiz-adv-x="690" d="M436 1530q0 106 -90 106q-92 0 -92 -106v-408q0 -49 23.5 -76.5t70.5 -27.5q88 0 88 104v408zM436 731q0 49 -21.5 77t-66.5 28q-94 0 -94 -105v-444q0 -104 92 -105q90 0 90 105v444zM618 1235q0 -246 -112 -309q113 -63 112 -308v-219q0 -399 -272 -399 q-274 0 -274 399v219q0 244 112 308q-113 63 -112 309v182q0 399 274 400q272 0 272 -400v-182z" />
<glyph unicode="9" horiz-adv-x="690" d="M254 983q0 -106 92 -106q86 0 90 98v555q0 106 -90 106q-92 0 -92 -106v-547zM72 565h182v-278q0 -104 92 -105q90 0 90 105v442q-41 -35 -90 -35q-274 0 -274 402v321q0 399 274 400q272 0 272 -400v-1018q0 -399 -272 -399q-274 0 -274 399v166z" />
<glyph unicode=":" horiz-adv-x="256" d="M41 840h164v-217h-164v217zM41 217h164v-217h-164v217z" />
<glyph unicode=";" horiz-adv-x="256" d="M41 840h164v-217h-164v217zM41 217h164v-180q0 -86 -34 -126t-103 -40v80q74 0 73 78h-100v188z" />
<glyph unicode="&#x3c;" horiz-adv-x="616" d="M578 602l-541 234v180l541 231v-102l-512 -213l512 -227v-103z" />
<glyph unicode="=" horiz-adv-x="540" d="M37 1108h448v-127h-448v127zM37 799h448v-127h-448v127z" />
<glyph unicode="&#x3e;" horiz-adv-x="616" d="M37 1247l541 -233v-180l-541 -232v103l510 213l-510 227v102z" />
<glyph unicode="?" horiz-adv-x="700" d="M209 182h184v-182h-184v182zM393 362h-184v287q0 236 110 369q55 66 86 154t31 204v154q0 106 -90 106q-92 0 -92 -106v-279h-182v166q0 399 274 400q272 0 272 -400v-69q0 -248 -112 -379q-113 -133 -113 -344v-263z" />
<glyph unicode="@" horiz-adv-x="972" d="M535 852q-39 -20 -70 -44t-31 -85v-98q0 -59 45 -60q55 0 56 60v227zM332 733q0 51 23.5 90t55 68t66.5 50.5t58 37.5v190q0 57 -48 58q-45 0 -45 -58v-163h-100v120q0 207 145 207q150 0 150 -207v-503q0 -55 80 -56q82 0 82 56v688q0 213 -318 213q-307 0 -307 -213 v-811q0 -201 227 -213h455v-99h-418q-373 0 -372 254v826q0 369 417 368q420 0 420 -368v-609q0 -199 -182 -198q-90 0 -135 55q-31 -55 -111 -55q-143 0 -143 207v65z" />
<glyph unicode="A" horiz-adv-x="665" d="M242 467h180l-62 512l-28 321l-27 -319zM0 0l242 1817h182l242 -1817h-185l-35 272h-231l-31 -272h-184z" />
<glyph unicode="B" horiz-adv-x="690" d="M436 1530q0 106 -90 106h-92v-618h94q88 0 88 104v408zM436 731q0 49 -21.5 77t-66.5 28h-94v-654h92q90 0 90 105v444zM618 1235q0 -246 -131 -309q131 -63 131 -308v-219q0 -399 -272 -399h-274v1817h274q272 0 272 -400v-182z" />
<glyph unicode="C" horiz-adv-x="671" d="M436 625h172v-226q0 -399 -262 -399q-274 0 -274 399v1018q0 399 274 400q262 0 262 -400v-166h-172v279q0 106 -90 106q-92 0 -92 -106v-1243q0 -104 92 -105q90 0 90 105v338z" />
<glyph unicode="D" horiz-adv-x="690" d="M436 1530q0 106 -90 106h-92v-1454h92q90 0 90 105v1243zM618 399q0 -399 -272 -399h-274v1817h274q272 0 272 -400v-1018z" />
<glyph unicode="E" horiz-adv-x="579" d="M254 182h281v-182h-463v1817h463v-181h-281v-618h160v-182h-160v-654z" />
<glyph unicode="F" horiz-adv-x="567" d="M254 0h-182v1817h463v-181h-281v-618h160v-182h-160v-836z" />
<glyph unicode="G" horiz-adv-x="684" d="M348 836h277v-836l-88 123q-53 -123 -191 -123q-274 0 -274 399v1018q0 399 276 400q279 0 279 -400v-166h-174v279q0 106 -105 106q-94 0 -94 -106v-1243q0 -104 92 -105q104 0 105 105v370h-103v179z" />
<glyph unicode="H" horiz-adv-x="690" d="M254 1018h182v799h182v-1817h-182v836h-182v-836h-182v1817h182v-799z" />
<glyph unicode="I" horiz-adv-x="327" d="M72 0v1817h182v-1817h-182z" />
<glyph unicode="J" horiz-adv-x="430" d="M186 1817h183v-1418q0 -399 -273 -399h-51v182h51q90 0 90 105v1530z" />
<glyph unicode="K" horiz-adv-x="735" d="M72 0v1817h182v-830l49 162l219 668h191l-303 -885l321 -932h-192l-236 715l-49 162v-877h-182z" />
<glyph unicode="L" horiz-adv-x="559" d="M254 182h281v-182h-463v1817h182v-1635z" />
<glyph unicode="M" horiz-adv-x="980" d="M72 0v1817h266l121 -979l28 -322l29 320l121 981h272v-1817h-164v1421l-22 -217l-160 -1204h-149l-160 1221l-18 198v-1419h-164z" />
<glyph unicode="N" horiz-adv-x="749" d="M268 1067l-32 244v-1311h-164v1817h219l186 -1035l37 -276v1311h162v-1817h-217z" />
<glyph unicode="O" horiz-adv-x="690" d="M436 1530q0 106 -90 106q-92 0 -92 -106v-1243q0 -104 92 -105q90 0 90 105v1243zM618 399q0 -399 -272 -399q-274 0 -274 399v1018q0 399 274 400q272 0 272 -400v-1018z" />
<glyph unicode="P" horiz-adv-x="700" d="M354 1090q119 0 119 122v301q0 123 -121 123h-98v-546h100zM254 0h-182v1817h280q301 0 301 -418v-72q0 -418 -299 -418h-100v-909z" />
<glyph unicode="Q" horiz-adv-x="690" d="M618 399q0 -358 -219 -395v-16q0 -51 20.5 -72.5t63.5 -21.5q70 0 135 40v-129q-84 -37 -151 -36q-88 0 -134 56t-48 179q-213 43 -213 395v1018q0 399 274 400q272 0 272 -400v-1018zM436 1530q0 106 -90 106q-92 0 -92 -106v-1243q0 -104 92 -105q90 0 90 105v1243z " />
<glyph unicode="R" horiz-adv-x="692" d="M354 1018q119 0 119 123v372q0 123 -121 123h-98v-618h100zM254 0h-182v1817h280q301 0 301 -381v-201q0 -250 -139 -358l135 -877h-184l-115 836h-96v-836z" />
<glyph unicode="S" horiz-adv-x="663" d="M410 1530q0 106 -78 106t-78 -106v-246q0 -119 168 -342q168 -219 168 -383v-160q0 -399 -258 -399q-260 0 -260 399v226h182v-338q0 -104 78 -105q78 0 78 105v209q0 164 -170 383q-168 217 -168 421v117q0 399 260 400q258 0 258 -400v-166h-180v279z" />
<glyph unicode="T" horiz-adv-x="559" d="M6 1817h545v-181h-180v-1636h-183v1636h-182v181z" />
<glyph unicode="U" horiz-adv-x="690" d="M436 1817h182v-1418q0 -399 -272 -399q-274 0 -274 399v1418h182v-1530q0 -104 92 -105q90 0 90 105v1530z" />
<glyph unicode="V" horiz-adv-x="665" d="M666 1817l-242 -1817h-182l-242 1817h184l121 -979l27 -322l26 320l123 981h185z" />
<glyph unicode="W" horiz-adv-x="1110" d="M1110 1817l-238 -1817h-167l-150 1159l-145 -1159h-168l-242 1817h184l121 -979l29 -322l26 320l121 981h148l121 -979l28 -322l29 320l119 981h184z" />
<glyph unicode="X" horiz-adv-x="692" d="M649 1817l-209 -838l252 -979h-188l-156 700l-158 -700h-188l250 979l-207 838h186l117 -562l113 562h188z" />
<glyph unicode="Y" horiz-adv-x="659" d="M238 0v776l-238 1041h186l109 -562l35 -243l32 243l109 562h188l-239 -1041v-776h-182z" />
<glyph unicode="Z" horiz-adv-x="610" d="M53 1817h525v-222l-363 -1413h363v-182h-543v205l377 1431h-359v181z" />
<glyph unicode="[" horiz-adv-x="432" d="M354 -72v-112h-305v2183h305v-109h-194v-1962h194z" />
<glyph unicode="\" horiz-adv-x="491" d="M123 1817l352 -1817h-115l-346 1817h109z" />
<glyph unicode="]" horiz-adv-x="432" d="M49 1890v109h303v-2181h-303v110l195 -4v1966h-195z" />
<glyph unicode="^" horiz-adv-x="694" d="M25 1276l233 541h180l232 -541h-103l-213 512l-227 -512h-102z" />
<glyph unicode="_" horiz-adv-x="724" d="M0 -182h727v-180h-727v180z" />
<glyph unicode="`" horiz-adv-x="358" d="M229 2015l109 -117h-92l-213 117h196z" />
<glyph unicode="a" horiz-adv-x="616" d="M387 606l-59 -32q-29 -15 -50.5 -36.5t-35 -53t-13.5 -81.5v-149q0 -92 74 -92q84 0 84 92v352zM72 422q0 80 36.5 140.5t88 106.5t104.5 77.5t86 54.5v295q0 90 -74 90q-68 0 -67 -90v-254h-158v186q0 322 225 322q229 0 230 -322v-1028h-156v59q-41 -59 -129 -59 q-186 0 -186 319v103z" />
<glyph unicode="b" d="M389 1096q0 90 -80 90t-80 -90v-842q0 -92 80 -92t80 92v842zM72 1817h157v-523q27 55 129 56q186 0 187 -322v-709q0 -319 -205 -319q-125 0 -172 102l-25 -102h-71v1817z" />
<glyph unicode="c" horiz-adv-x="608" d="M389 1096q0 90 -82 90q-78 0 -78 -90v-842q0 -92 78 -92q82 0 82 92v260h156v-195q0 -319 -238 -319q-236 0 -235 319v709q0 322 235 322q238 0 238 -322v-186h-156v254z" />
<glyph unicode="d" d="M229 254q0 -92 80 -92t80 92v842q0 90 -80 90t-80 -90v-842zM545 0h-156v61q-68 -61 -139 -61q-178 0 -178 319v709q0 322 178 322q111 0 139 -56v523h156v-1817z" />
<glyph unicode="e" d="M229 805h160v291q0 90 -82 90q-78 0 -78 -90v-291zM229 254q0 -92 78 -92q82 0 82 92v260h156v-195q0 -319 -238 -319q-236 0 -235 319v709q0 322 235 322q238 0 238 -322v-383h-316v-391z" />
<glyph unicode="f" horiz-adv-x="319" d="M0 1350h59v147q0 319 260 320v-164q-104 0 -104 -90v-213h72v-164h-72v-1186h-156v1186h-59v164z" />
<glyph unicode="g" d="M229 287q0 -92 80 -92q70 0 80 77v824q0 92 -80 92t-80 -92v-809zM307 -160q82 0 82 94v152q-29 -53 -139 -53q-178 0 -178 319v676q0 322 178 322q72 0 139 -62v62h156v-1350q0 -319 -238 -319q-211 0 -231 247h153q2 -88 78 -88z" />
<glyph unicode="h" d="M389 1096q0 90 -80 90t-80 -90v-1096h-157v1817h157v-523q27 55 129 56q186 0 187 -322v-1028h-156v1096z" />
<glyph unicode="i" horiz-adv-x="303" d="M229 1569h-157v248h157v-248zM229 0h-157v1350h157v-1350z" />
<glyph unicode="j" horiz-adv-x="315" d="M244 1569h-158v248h158v-248zM-37 -158q123 0 123 121v1387h158v-1334q0 -336 -281 -335v161z" />
<glyph unicode="k" horiz-adv-x="608" d="M72 1817h157v-1090l205 623h164l-236 -682l234 -668h-166l-201 618v-618h-157v1817z" />
<glyph unicode="l" horiz-adv-x="264" d="M53 1817h156v-1817h-156v1817z" />
<glyph unicode="m" horiz-adv-x="931" d="M702 1096q0 90 -79 90q-78 0 -78 -88v-1098h-156v1096q0 90 -80 90t-80 -90v-1096h-157v1350h157v-56q27 55 129 56q96 0 150 -86q45 86 164 86q186 0 186 -322v-1028h-156v1096z" />
<glyph unicode="n" d="M389 1096q0 90 -80 90t-80 -90v-1096h-157v1350h157v-56q27 55 129 56q186 0 187 -322v-1028h-156v1096z" />
<glyph unicode="o" d="M389 1096q0 90 -82 90q-78 0 -78 -90v-842q0 -92 78 -92q82 0 82 92v842zM545 319q0 -319 -238 -319q-236 0 -235 319v709q0 322 235 322q238 0 238 -322v-709z" />
<glyph unicode="p" d="M72 1350h157v-62q63 61 140 62q176 0 176 -322v-709q0 -319 -176 -319q-113 0 -140 55v-374h-157v1669zM389 1096q0 92 -80 92t-80 -92v-842q0 -90 80 -90t80 90v842z" />
<glyph unicode="q" d="M545 -319h-156v374q-29 -55 -139 -55q-178 0 -178 319v709q0 322 178 322q72 0 139 -62v62h156v-1669zM229 254q0 -90 80 -90t80 90v842q0 92 -80 92t-80 -92v-842z" />
<glyph unicode="r" horiz-adv-x="395" d="M229 1294q27 55 138 56v-199q-23 35 -58 35q-80 0 -80 -90v-1096h-157v1350h157v-56z" />
<glyph unicode="s" horiz-adv-x="557" d="M338 1102q0 92 -64 92q-63 0 -63 -92v-125q0 -102 145 -285q147 -184 148 -354q0 -338 -225 -338q-221 0 -222 346v57h154v-155q0 -94 68 -94q70 0 69 94v125q0 111 -145 268q-145 158 -146 365q0 344 217 344q221 0 222 -344v-115h-158v211z" />
<glyph unicode="t" horiz-adv-x="356" d="M12 1350h64v467h155v-467h74v-164h-74v-932q0 -90 84 -90v-164q-240 0 -239 319v867h-64v164z" />
<glyph unicode="u" d="M229 254q0 -90 80 -90t80 90v1096h156v-1350h-156v55q-29 -55 -131 -55q-186 0 -186 319v1031h157v-1096z" />
<glyph unicode="v" horiz-adv-x="544" d="M295 748l76 602h164l-181 -1350h-164l-178 1350h160l76 -600l24 -287z" />
<glyph unicode="w" horiz-adv-x="860" d="M610 748l76 602h164l-180 -1350h-142l-98 743l-98 -743h-142l-178 1350h160l76 -600l24 -287l23 285l76 602h116l76 -600l25 -287z" />
<glyph unicode="x" horiz-adv-x="538" d="M526 0h-166l-90 412l-92 -412h-166l170 666l-168 684h166l58 -291l32 -141l86 432h168l-170 -684z" />
<glyph unicode="y" horiz-adv-x="559" d="M43 -158q137 8 162 158l-187 1350h162l74 -600l25 -287l24 285l74 602h164l-181 -1350q-23 -166 -105.5 -242.5t-211.5 -76.5v161z" />
<glyph unicode="z" horiz-adv-x="548" d="M70 1350h415v-193l-268 -995h266v-162h-420v178l279 1008h-272v164z" />
<glyph unicode="{" horiz-adv-x="589" d="M340 182q0 -254 197 -254v-110q-305 0 -306 399v447l-202 245l202 252v438q0 399 306 400v-109q-197 0 -197 -254v-508l-178 -219l178 -223v-504z" />
<glyph unicode="|" horiz-adv-x="204" d="M162 1817v-1817h-115v1817h115z" />
<glyph unicode="}" horiz-adv-x="589" d="M223 1636q0 254 -196 254v109q305 0 305 -400v-446l203 -244l-203 -252v-440q0 -399 -305 -399v110q197 0 196 254v506l178 221l-178 221v506z" />
<glyph unicode="&#xa1;" horiz-adv-x="319" d="M248 1315h-185v182h185v-182zM63 580l46 553h94l45 -547v-905h-185v899z" />
<glyph unicode="&#xa2;" horiz-adv-x="577" d="M209 254q0 -82 59 -92v1022q-59 -12 -59 -88v-842zM305 1554v-206q219 -10 219 -320v-186h-155v254q0 80 -64 88v-1022q63 8 64 92v260h155v-195q0 -309 -219 -319v-182h-37v182q-215 12 -215 319v709q0 307 215 320v206h37z" />
<glyph unicode="&#xa3;" horiz-adv-x="520" d="M98 182v1260q0 375 330 375v-164q-174 0 -174 -146v-157h166v-164h-166v-1004h238v-182h-463v182h69z" />
<glyph unicode="&#xa5;" horiz-adv-x="659" d="M238 0v776l-238 1041h186l109 -562l35 -243l32 243l109 562h188l-239 -1041v-776h-182zM67.0996 836.688h533.969v-93.2656h-533.969v93.2656zM67.0996 609.766h533.969v-93.2656h-533.969v93.2656z" />
<glyph unicode="&#xa6;" horiz-adv-x="204" d="M162 0h-115v606h113zM160 1143h-113v674h113v-674z" />
<glyph unicode="&#xa7;" horiz-adv-x="569" d="M352 967q-4 80 -63 80q-72 0 -72 -80v-117q0 -82 68 -82t67 82v117zM352 1599q0 76 -67 76q-68 0 -68 -76v-126q0 -43 32 -98.5t71.5 -106.5t76.5 -93t45 -59q12 -23 21.5 -43t17.5 -44.5t12.5 -56.5t4.5 -77h-2q-10 -244 -201 -246q18 -16 52 -50t66.5 -80t57.5 -102.5 t27 -117.5q0 -299 -213 -299t-213 299v55h145v-137q0 -80 68 -80t67 80v27q0 125 -141 291q-139 164 -139 321q0 147 40 222t132 83q-172 168 -172 326v29q0 299 213 299t213 -299v-103h-146v186z" />
<glyph unicode="&#xa8;" horiz-adv-x="522" d="M55 2015h109v-117h-109v117zM362 1898v117h113v-117h-113z" />
<glyph unicode="&#xa9;" horiz-adv-x="1480" d="M795 1141q0 76 -70 76q-66 0 -66 -76v-467q0 -78 66 -78q70 0 70 78v84h135v-27q0 -272 -205 -272q-199 0 -199 272v352q0 272 199 273q205 0 205 -273v-45h-135v103zM147 918q0 -121 47.5 -228.5t127 -187.5t186 -126t227.5 -46q119 0 226.5 46t188.5 126t128 187.5 t47 228.5q0 119 -47 226t-128 187t-188.5 127t-226.5 47q-121 0 -227.5 -47t-186 -127t-127 -187t-47.5 -226zM37 918q0 143 54 273t149.5 226t222.5 153.5t272 57.5t274.5 -57.5t226.5 -153.5t153.5 -226t56.5 -273q0 -145 -56.5 -272.5t-153.5 -222.5t-226 -150.5 t-275 -55.5q-145 0 -272 55.5t-222.5 150.5t-149.5 222.5t-54 272.5z" />
<glyph unicode="&#xaa;" horiz-adv-x="567" d="M250 1112q35 0 35 41v184q-27 -16 -45.5 -33.5t-18.5 -62.5v-88q0 -41 29 -41zM117 1251q0 41 15 75t40 60.5t54.5 47t58.5 36.5v162q0 41 -29 41q-27 0 -27 -41v-153h-106v118q0 190 133 191q135 0 135 -191v-598h-106v17q-23 -16 -58 -17q-111 0 -110 193v59z" />
<glyph unicode="&#xab;" horiz-adv-x="1263" d="M1100 80h-168l-348 506l348 504h168l-295 -504zM664 80h-162l-355 506l355 504h164l-291 -504z" />
<glyph unicode="&#xac;" horiz-adv-x="376" d="M37 999h303v-145h-303v145z" />
<glyph unicode="&#xad;" horiz-adv-x="376" d="M37 999h303v-145h-303v145z" />
<glyph unicode="&#xae;" horiz-adv-x="1081" d="M436 999h-104v619h196q117 0 168.5 -41t51.5 -127q0 -133 -105 -154l94 -297h-106l-82 285h-113v-285zM551 1346q86 0 86 104q0 106 -86 106h-115v-210h115zM109 1305q0 -88 33.5 -165t92 -135.5t136.5 -92t164 -33.5t162.5 33.5t135 92t92 135.5t33.5 165 q0 86 -33.5 162.5t-92 135t-135 92.5t-162.5 34t-164 -34t-136.5 -92.5t-92 -135t-33.5 -162.5zM29 1305q0 104 40 197t108.5 163t160.5 111t197 41q104 0 197 -41t163 -111t111 -163t41 -197t-41 -196.5t-111 -161t-163 -108.5t-197 -40t-196.5 40t-161 108.5t-108.5 161 t-40 196.5z" />
<glyph unicode="&#xaf;" horiz-adv-x="454" d="M72 2015h327v-117h-327v117z" />
<glyph unicode="&#xb0;" horiz-adv-x="831" d="M150 1450q0 -55 22.5 -103.5t59 -84t86 -57t102.5 -21.5q55 0 103 21.5t84 57t57.5 84t21.5 103.5q0 53 -21.5 102.5t-57.5 86t-84 59t-103 22.5q-53 0 -102.5 -22.5t-86 -59t-59 -86t-22.5 -102.5zM55 1450q0 76 28 143.5t77 117.5t115.5 80t144.5 30q76 0 143.5 -30 t117.5 -80t80 -117.5t30 -143.5t-30 -142.5t-80 -115.5t-117.5 -78t-143.5 -29q-78 0 -144.5 29t-115.5 78t-77 115.5t-28 142.5z" />
<glyph unicode="&#xb1;" horiz-adv-x="608" d="M59 612h496v-149h-496v149zM377 1194v-195h192v-145h-192v-195h-146v195h-194v145h194v195h146z" />
<glyph unicode="&#xb2;" horiz-adv-x="546" d="M76 889q0 145 114 321q53 80 82 152t33 145v115q0 39 -37 39t-37 -39v-199h-155v125q0 268 192 269q193 0 193 -269v-61q0 -156 -119 -328q-109 -158 -109 -289v-61h228v-158h-385v238z" />
<glyph unicode="&#xb3;" horiz-adv-x="563" d="M311 1622q0 39 -32 39q-33 0 -33 -39v-199h-160v125q0 268 193 269q195 0 194 -269v-112q0 -139 -98 -191q98 -59 98 -186v-137q0 -270 -194 -271q-193 0 -193 271v159h160v-231q0 -41 33 -41t32 41v276q0 41 -28 41h-62v158h66q25 0 24 43v254z" />
<glyph unicode="&#xb4;" horiz-adv-x="358" d="M332 2015l-213 -117h-94l108 117h199z" />
<glyph unicode="&#xb5;" horiz-adv-x="577" d="M53 1350h156v-1096q0 -90 80 -90t80 90v1096h155v-1108q4 -78 51 -78v-164h-55q-76 0 -123 90q-59 -90 -159 -90q-25 0 -29 2v-324h-156v1672z" />
<glyph unicode="&#x3bc;" horiz-adv-x="577" d="M53 1350h156v-1096q0 -90 80 -90t80 90v1096h155v-1108q4 -78 51 -78v-164h-55q-76 0 -123 90q-59 -90 -159 -90q-25 0 -29 2v-324h-156v1672z" />
<glyph unicode="&#xb6;" horiz-adv-x="542" d="M512 1817v-1817h-115v1137h-112v-1137h-115v1137h-141v680h483z" />
<glyph unicode="&#xb7;" horiz-adv-x="256" d="M41 960h164v-217h-164v217z" />
<glyph unicode="&#xb8;" horiz-adv-x="399" d="M211 -4q0 -31 15.5 -52.5t34 -43t33.5 -47t15 -64.5q0 -109 -116 -108q-111 0 -111 100v12h80q-2 -6 -2 -20q0 -41 33 -41q39 0 38 47q0 35 -15 58.5t-33.5 45t-34 46t-15.5 63.5v22h78v-18z" />
<glyph unicode="&#xb9;" horiz-adv-x="354" d="M59 1706q63 0 64 61v50h156v-1166h-156v897h-64v158z" />
<glyph unicode="&#xba;" horiz-adv-x="577" d="M369 1563q0 90 -82 90q-78 0 -78 -90v-682q0 -92 78 -93q82 0 82 93v682zM524 946q0 -319 -237 -319q-233 0 -234 319v551q0 319 234 320q238 0 237 -320v-551z" />
<glyph unicode="&#xbb;" horiz-adv-x="1263" d="M154 1090h168l348 -504l-348 -506h-168l297 506zM588 1090h164l354 -504l-354 -506h-164l291 506z" />
<glyph unicode="&#xbc;" horiz-adv-x="1269" d="M985 381v305l-102 -305h102zM59 1706q63 0 64 61v50h156v-1166h-156v897h-64v158zM750 371l241 794h146v-784h57v-156h-57v-225h-152v225h-235v146zM1040 1817l-764 -1817h-112l766 1817h110z" />
<glyph unicode="&#xbd;" horiz-adv-x="1310" d="M76 1706q63 0 63 61v50h156v-1166h-156v897h-63v158zM836 236q0 147 116 323q53 78 83 151.5t30 145.5v115q0 37 -37 37q-35 0 -35 -37v-199h-157v125q0 268 192 268q195 0 195 -268v-61q0 -156 -119 -330q-109 -158 -109 -289v-59h228v-158h-387v236zM1049 1817 l-762 -1817h-115l766 1817h111z" />
<glyph unicode="&#xbe;" horiz-adv-x="1366" d="M1077 381v305l-102 -305h102zM840 371l241 794h146v-784h59v-156h-59v-225h-150v225h-237v146zM348 1622q0 39 -33 39t-32 -39v-199h-160v125q0 268 192 269q193 0 193 -269v-112q0 -137 -96 -191q96 -59 96 -186v-137q0 -270 -193 -271q-193 0 -192 271v159h160v-231 q0 -41 32 -41q33 0 33 41v276q0 41 -31 41h-61v158h66q27 0 26 43v254zM1169 1817l-761 -1817h-115l766 1817h110z" />
<glyph unicode="&#xbf;" horiz-adv-x="700" d="M485 1315h-182v182h182v-182zM303 1133h182v-285q0 -238 -110 -369q-111 -131 -117 -358v-156q0 -104 92 -104q90 0 90 104v281h183v-166q0 -399 -273 -399q-272 0 -272 399v70q0 244 110 376q53 66 84 153t31 193v261z" />
<glyph unicode="&#xc0;" horiz-adv-x="665" d="M242 467h180l-62 512l-28 321l-27 -319zM0 0l242 1817h182l242 -1817h-185l-35 272h-231l-31 -272h-184zM297 2015l109 -117h-92l-213 117h196z" />
<glyph unicode="&#xc1;" horiz-adv-x="665" d="M242 467h180l-62 512l-28 321l-27 -319zM0 0l242 1817h182l242 -1817h-185l-35 272h-231l-31 -272h-184zM555 2015l-213 -117h-94l108 117h199z" />
<glyph unicode="&#xc2;" horiz-adv-x="665" d="M242 467h180l-62 512l-28 321l-27 -319zM0 0l242 1817h182l242 -1817h-185l-35 272h-231l-31 -272h-184zM282 2015h105l164 -117h-164l-53 93l-52 -93h-166z" />
<glyph unicode="&#xc3;" horiz-adv-x="665" d="M242 467h180l-62 512l-28 321l-27 -319zM0 0l242 1817h182l242 -1817h-185l-35 272h-231l-31 -272h-184zM123 1898q0 51 27.5 84t74.5 33q27 0 57.5 -7t59.5 -15l54 -16q26 -7 42 -7q20 0 29.5 13.5t11.5 31.5h68q0 -59 -28 -88t-69 -29q-27 0 -56 8l-58 14 q-29 7 -54.5 14.5t-44.5 7.5q-23 0 -35 -9.5t-14 -34.5h-65z" />
<glyph unicode="&#xc4;" horiz-adv-x="665" d="M242 467h180l-62 512l-28 321l-27 -319zM0 0l242 1817h182l242 -1817h-185l-35 272h-231l-31 -272h-184zM123 2015h109v-117h-109v117zM430 1898v117h113v-117h-113z" />
<glyph unicode="&#xc5;" horiz-adv-x="665" d="M242 467h180l-62 512l-28 321l-27 -319zM0 0l242 1817h182l242 -1817h-185l-35 272h-231l-31 -272h-184zM235 1964q0 -39 29 -66.5t68 -27.5q37 0 65.5 27.5t28.5 66.5t-28.5 67.5t-65.5 28.5q-39 0 -68 -28.5t-29 -67.5zM203 1964q0 53 37.5 92t91.5 39q51 0 90 -39 t39 -92q0 -51 -39 -89t-90 -38q-53 0 -91 38t-38 89z" />
<glyph unicode="&#xc6;" horiz-adv-x="854" d="M326 758h104v612l-35 -227zM430 0v575h-137l-105 -575h-184l330 1817h465v-181h-189v-878h115v-183h-115v-393h189v-182h-369z" />
<glyph unicode="&#xc7;" horiz-adv-x="671" d="M436 625h172v-226q0 -399 -262 -399q-274 0 -274 399v1018q0 399 274 400q262 0 262 -400v-166h-172v279q0 106 -90 106q-92 0 -92 -106v-1243q0 -104 92 -105q90 0 90 105v338zM373 -4q0 -31 15.5 -52.5t34 -43t33.5 -47t15 -64.5q0 -109 -116 -108q-111 0 -111 100v12 h80q-2 -6 -2 -20q0 -41 33 -41q39 0 38 47q0 35 -15 58.5t-33.5 45t-34 46t-15.5 63.5v22h78v-18z" />
<glyph unicode="&#xc8;" horiz-adv-x="579" d="M254 182h281v-182h-463v1817h463v-181h-281v-618h160v-182h-160v-654zM274 2015l109 -117h-92l-213 117h196z" />
<glyph unicode="&#xc9;" horiz-adv-x="579" d="M254 182h281v-182h-463v1817h463v-181h-281v-618h160v-182h-160v-654zM473 2015l-213 -117h-94l108 117h199z" />
<glyph unicode="&#xca;" horiz-adv-x="579" d="M254 182h281v-182h-463v1817h463v-181h-281v-618h160v-182h-160v-654zM254 2005h105l164 -117h-164l-53 93l-52 -93h-166z" />
<glyph unicode="&#xcb;" horiz-adv-x="579" d="M254 182h281v-182h-463v1817h463v-181h-281v-618h160v-182h-160v-654zM94 2015h109v-117h-109v117zM401 1898v117h113v-117h-113z" />
<glyph unicode="&#xcc;" horiz-adv-x="327" d="M72 0v1817h182v-1817h-182zM147 2015l109 -117h-92l-213 117h196z" />
<glyph unicode="&#xcd;" horiz-adv-x="327" d="M72 0v1817h182v-1817h-182zM377 2015l-213 -117h-94l108 117h199z" />
<glyph unicode="&#xce;" horiz-adv-x="327" d="M72 0v1817h182v-1817h-182zM118 2015h105l164 -117h-164l-53 93l-52 -93h-166z" />
<glyph unicode="&#xcf;" horiz-adv-x="327" d="M72 0v1817h182v-1817h-182zM-35 2015h109v-117h-109v117zM272 1898v117h113v-117h-113z" />
<glyph unicode="&#xd0;" horiz-adv-x="690" d="M14 999h303v-145h-303v145zM436 1530q0 106 -90 106h-92v-1454h92q90 0 90 105v1243zM618 399q0 -399 -272 -399h-274v1817h274q272 0 272 -400v-1018z" />
<glyph unicode="&#xd1;" horiz-adv-x="749" d="M268 1067l-32 244v-1311h-164v1817h219l186 -1035l37 -276v1311h162v-1817h-217zM166 1898q0 51 27.5 84t74.5 33q27 0 57.5 -7t59.5 -15l54 -16q26 -7 42 -7q20 0 29.5 13.5t11.5 31.5h68q0 -59 -28 -88t-69 -29q-27 0 -56 8l-58 14q-29 7 -54.5 14.5t-44.5 7.5 q-23 0 -35 -9.5t-14 -34.5h-65z" />
<glyph unicode="&#xd2;" horiz-adv-x="690" d="M436 1530q0 106 -90 106q-92 0 -92 -106v-1243q0 -104 92 -105q90 0 90 105v1243zM618 399q0 -399 -272 -399q-274 0 -274 399v1018q0 399 274 400q272 0 272 -400v-1018zM286 2015l109 -117h-92l-213 117h196z" />
<glyph unicode="&#xd3;" horiz-adv-x="690" d="M436 1530q0 106 -90 106q-92 0 -92 -106v-1243q0 -104 92 -105q90 0 90 105v1243zM618 399q0 -399 -272 -399q-274 0 -274 399v1018q0 399 274 400q272 0 272 -400v-1018zM574 2015l-213 -117h-94l108 117h199z" />
<glyph unicode="&#xd4;" horiz-adv-x="690" d="M436 1530q0 106 -90 106q-92 0 -92 -106v-1243q0 -104 92 -105q90 0 90 105v1243zM618 399q0 -399 -272 -399q-274 0 -274 399v1018q0 399 274 400q272 0 272 -400v-1018zM290 2015h105l164 -117h-164l-53 93l-52 -93h-166z" />
<glyph unicode="&#xd5;" horiz-adv-x="690" d="M436 1530q0 106 -90 106q-92 0 -92 -106v-1243q0 -104 92 -105q90 0 90 105v1243zM618 399q0 -399 -272 -399q-274 0 -274 399v1018q0 399 274 400q272 0 272 -400v-1018zM138 1898q0 51 27.5 84t74.5 33q27 0 57.5 -7t59.5 -15l54 -16q26 -7 42 -7q20 0 29.5 13.5 t11.5 31.5h68q0 -59 -28 -88t-69 -29q-27 0 -56 8l-58 14q-29 7 -54.5 14.5t-44.5 7.5q-23 0 -35 -9.5t-14 -34.5h-65z" />
<glyph unicode="&#xd6;" horiz-adv-x="690" d="M436 1530q0 106 -90 106q-92 0 -92 -106v-1243q0 -104 92 -105q90 0 90 105v1243zM618 399q0 -399 -272 -399q-274 0 -274 399v1018q0 399 274 400q272 0 272 -400v-1018zM135 2015h109v-117h-109v117zM442 1898v117h113v-117h-113z" />
<glyph unicode="&#xd7;" horiz-adv-x="608" d="M545 1063l-137 -139l135 -136l-103 -102l-135 135l-139 -137l-103 102l138 138l-138 139l103 102l139 -137l137 137z" />
<glyph unicode="&#xd8;" horiz-adv-x="690" d="M436 1530q0 106 -90 106q-92 0 -92 -106v-1243q0 -104 92 -105q90 0 90 105v1243zM618 399q0 -399 -272 -399q-274 0 -274 399v1018q0 399 274 400q272 0 272 -400v-1018zM565 1817l-348 -1817h-113l350 1817h111z" />
<glyph unicode="&#xd9;" horiz-adv-x="690" d="M436 1817h182v-1418q0 -399 -272 -399q-274 0 -274 399v1418h182v-1530q0 -104 92 -105q90 0 90 105v1530zM290 2015l109 -117h-92l-213 117h196z" />
<glyph unicode="&#xda;" horiz-adv-x="690" d="M436 1817h182v-1418q0 -399 -272 -399q-274 0 -274 399v1418h182v-1530q0 -104 92 -105q90 0 90 105v1530zM520 2015l-213 -117h-94l108 117h199z" />
<glyph unicode="&#xdb;" horiz-adv-x="690" d="M436 1817h182v-1418q0 -399 -272 -399q-274 0 -274 399v1418h182v-1530q0 -104 92 -105q90 0 90 105v1530zM290 2015h105l164 -117h-164l-53 93l-52 -93h-166z" />
<glyph unicode="&#xdc;" horiz-adv-x="690" d="M436 1817h182v-1418q0 -399 -272 -399q-274 0 -274 399v1418h182v-1530q0 -104 92 -105q90 0 90 105v1530zM135 2015h109v-117h-109v117zM442 1898v117h113v-117h-113z" />
<glyph unicode="&#xdd;" horiz-adv-x="659" d="M238 0v776l-238 1041h186l109 -562l35 -243l32 243l109 562h188l-239 -1041v-776h-182zM479 2015l-213 -117h-94l108 117h199z" />
<glyph unicode="&#xde;" horiz-adv-x="700" d="M354 625q119 0 119 123v299q0 123 -121 122h-98v-544h100zM72 1817h182v-465h98q301 0 301 -418v-74q0 -418 -299 -418h-100v-442h-182v1817z" />
<glyph unicode="&#xdf;" horiz-adv-x="643" d="M416 1556q0 104 -90 105q-92 0 -93 -105v-1556h-155v1462q0 354 248 355q250 0 249 -355v-272q0 -199 -90 -264q90 -66 90 -262v-310q0 -354 -270 -354v158q111 0 111 104v483q0 102 -113 105v156q113 0 113 104v446z" />
<glyph unicode="&#xe0;" horiz-adv-x="616" d="M387 606l-59 -32q-29 -15 -50.5 -36.5t-35 -53t-13.5 -81.5v-149q0 -92 74 -92q84 0 84 92v352zM72 422q0 80 36.5 140.5t88 106.5t104.5 77.5t86 54.5v295q0 90 -74 90q-68 0 -67 -90v-254h-158v186q0 322 225 322q229 0 230 -322v-1028h-156v59q-41 -59 -129 -59 q-186 0 -186 319v103zM258 1546l109 -117h-92l-213 117h196z" />
<glyph unicode="&#xe1;" horiz-adv-x="616" d="M387 606l-59 -32q-29 -15 -50.5 -36.5t-35 -53t-13.5 -81.5v-149q0 -92 74 -92q84 0 84 92v352zM72 422q0 80 36.5 140.5t88 106.5t104.5 77.5t86 54.5v295q0 90 -74 90q-68 0 -67 -90v-254h-158v186q0 322 225 322q229 0 230 -322v-1028h-156v59q-41 -59 -129 -59 q-186 0 -186 319v103zM537 1546l-213 -117h-94l108 117h199z" />
<glyph unicode="&#xe2;" horiz-adv-x="616" d="M387 606l-59 -32q-29 -15 -50.5 -36.5t-35 -53t-13.5 -81.5v-149q0 -92 74 -92q84 0 84 92v352zM72 422q0 80 36.5 140.5t88 106.5t104.5 77.5t86 54.5v295q0 90 -74 90q-68 0 -67 -90v-254h-158v186q0 322 225 322q229 0 230 -322v-1028h-156v59q-41 -59 -129 -59 q-186 0 -186 319v103zM274 1546h105l164 -117h-164l-53 93l-52 -93h-166z" />
<glyph unicode="&#xe3;" horiz-adv-x="616" d="M387 606l-59 -32q-29 -15 -50.5 -36.5t-35 -53t-13.5 -81.5v-149q0 -92 74 -92q84 0 84 92v352zM72 422q0 80 36.5 140.5t88 106.5t104.5 77.5t86 54.5v295q0 90 -74 90q-68 0 -67 -90v-254h-158v186q0 322 225 322q229 0 230 -322v-1028h-156v59q-41 -59 -129 -59 q-186 0 -186 319v103zM107 1429q0 51 27.5 84t74.5 33q27 0 57.5 -7t59.5 -15l54 -16q26 -7 42 -7q20 0 29.5 13.5t11.5 31.5h68q0 -59 -28 -88t-69 -29q-27 0 -56 8l-58 14q-29 7 -54.5 14.5t-44.5 7.5q-23 0 -35 -9.5t-14 -34.5h-65z" />
<glyph unicode="&#xe4;" horiz-adv-x="616" d="M387 606l-59 -32q-29 -15 -50.5 -36.5t-35 -53t-13.5 -81.5v-149q0 -92 74 -92q84 0 84 92v352zM72 422q0 80 36.5 140.5t88 106.5t104.5 77.5t86 54.5v295q0 90 -74 90q-68 0 -67 -90v-254h-158v186q0 322 225 322q229 0 230 -322v-1028h-156v59q-41 -59 -129 -59 q-186 0 -186 319v103zM98 1546h109v-117h-109v117zM405 1429v117h113v-117h-113z" />
<glyph unicode="&#xe5;" horiz-adv-x="616" d="M387 606l-59 -32q-29 -15 -50.5 -36.5t-35 -53t-13.5 -81.5v-149q0 -92 74 -92q84 0 84 92v352zM72 422q0 80 36.5 140.5t88 106.5t104.5 77.5t86 54.5v295q0 90 -74 90q-68 0 -67 -90v-254h-158v186q0 322 225 322q229 0 230 -322v-1028h-156v59q-41 -59 -129 -59 q-186 0 -186 319v103zM215 1495q0 -39 29 -66.5t68 -27.5q37 0 65.5 27.5t28.5 66.5t-28.5 67.5t-65.5 28.5q-39 0 -68 -28.5t-29 -67.5zM183 1495q0 53 37.5 92t91.5 39q51 0 90 -39t39 -92q0 -51 -39 -89t-90 -38q-53 0 -91 38t-38 89z" />
<glyph unicode="&#xe6;" horiz-adv-x="931" d="M543 254q0 -92 78 -92q82 0 81 92v260h156v-195q0 -319 -225 -319q-106 0 -172 84q-59 -84 -156 -84q-233 0 -233 319v103q0 80 36.5 140.5t88 106.5t104.5 77.5t86 54.5v295q0 90 -74 90q-68 0 -67 -90v-254h-158v186q0 322 225 322q96 0 150 -80q57 80 158 80 q238 0 237 -322v-383h-315v-391zM387 606l-59 -32q-29 -15 -50.5 -36.5t-35 -53t-13.5 -81.5v-149q0 -92 74 -92q84 0 84 92v352zM543 805h159v291q0 90 -81 90q-78 0 -78 -90v-291z" />
<glyph unicode="&#xe7;" horiz-adv-x="608" d="M389 1096q0 90 -82 90q-78 0 -78 -90v-842q0 -92 78 -92q82 0 82 92v260h156v-195q0 -319 -238 -319q-236 0 -235 319v709q0 322 235 322q238 0 238 -322v-186h-156v254zM348 -4q0 -31 15.5 -52.5t34 -43t33.5 -47t15 -64.5q0 -109 -116 -108q-111 0 -111 100v12h80 q-2 -6 -2 -20q0 -41 33 -41q39 0 38 47q0 35 -15 58.5t-33.5 45t-34 46t-15.5 63.5v22h78v-18z" />
<glyph unicode="&#xe8;" d="M229 805h160v291q0 90 -82 90q-78 0 -78 -90v-291zM229 254q0 -92 78 -92q82 0 82 92v260h156v-195q0 -319 -238 -319q-236 0 -235 319v709q0 322 235 322q238 0 238 -322v-383h-316v-391zM282 1546l109 -117h-92l-213 117h196z" />
<glyph unicode="&#xe9;" d="M229 805h160v291q0 90 -82 90q-78 0 -78 -90v-291zM229 254q0 -92 78 -92q82 0 82 92v260h156v-195q0 -319 -238 -319q-236 0 -235 319v709q0 322 235 322q238 0 238 -322v-383h-316v-391zM527 1546l-213 -117h-94l108 117h199z" />
<glyph unicode="&#xea;" d="M229 805h160v291q0 90 -82 90q-78 0 -78 -90v-291zM229 254q0 -92 78 -92q82 0 82 92v260h156v-195q0 -319 -238 -319q-236 0 -235 319v709q0 322 235 322q238 0 238 -322v-383h-316v-391zM256 1546h105l164 -117h-164l-53 93l-52 -93h-166z" />
<glyph unicode="&#xeb;" d="M229 805h160v291q0 90 -82 90q-78 0 -78 -90v-291zM229 254q0 -92 78 -92q82 0 82 92v260h156v-195q0 -319 -238 -319q-236 0 -235 319v709q0 322 235 322q238 0 238 -322v-383h-316v-391zM100 1546h109v-117h-109v117zM407 1429v117h113v-117h-113z" />
<glyph unicode="&#xec;" horiz-adv-x="319" d="M244 0h-158v1350h158v-1350zM155 1546l109 -117h-92l-213 117h196z" />
<glyph unicode="&#xed;" horiz-adv-x="319" d="M244 0h-158v1350h158v-1350zM400 1546l-213 -117h-94l108 117h199z" />
<glyph unicode="&#xee;" horiz-adv-x="319" d="M244 0h-158v1350h158v-1350zM120 1546h105l164 -117h-164l-53 93l-52 -93h-166z" />
<glyph unicode="&#xef;" horiz-adv-x="319" d="M244 0h-158v1350h158v-1350zM-35 1546h109v-117h-109v117zM272 1429v117h113v-117h-113z" />
<glyph unicode="&#xf0;" horiz-adv-x="690" d="M70 1417q0 399 272 400q274 0 274 -400v-1018q0 -399 -274 -399q-272 0 -272 399v324q0 399 272 399q51 0 92 -35v443q0 106 -92 106q-90 0 -90 -106v-279h-182v166zM252 287q0 -104 90 -105q92 0 92 105v555q-4 98 -92 98q-90 0 -90 -106v-547z" />
<glyph unicode="&#xf1;" d="M389 1096q0 90 -80 90t-80 -90v-1096h-157v1350h157v-56q27 55 129 56q186 0 187 -322v-1028h-156v1096zM88 1429q0 51 27.5 84t74.5 33q27 0 57.5 -7t59.5 -15l54 -16q26 -7 42 -7q20 0 29.5 13.5t11.5 31.5h68q0 -59 -28 -88t-69 -29q-27 0 -56 8l-58 14 q-29 7 -54.5 14.5t-44.5 7.5q-23 0 -35 -9.5t-14 -34.5h-65z" />
<glyph unicode="&#xf2;" d="M389 1096q0 90 -82 90q-78 0 -78 -90v-842q0 -92 78 -92q82 0 82 92v842zM545 319q0 -319 -238 -319q-236 0 -235 319v709q0 322 235 322q238 0 238 -322v-709zM270 1546l109 -117h-92l-213 117h196z" />
<glyph unicode="&#xf3;" d="M389 1096q0 90 -82 90q-78 0 -78 -90v-842q0 -92 78 -92q82 0 82 92v842zM545 319q0 -319 -238 -319q-236 0 -235 319v709q0 322 235 322q238 0 238 -322v-709zM479 1546l-213 -117h-94l108 117h199z" />
<glyph unicode="&#xf4;" d="M389 1096q0 90 -82 90q-78 0 -78 -90v-842q0 -92 78 -92q82 0 82 92v842zM545 319q0 -319 -238 -319q-236 0 -235 319v709q0 322 235 322q238 0 238 -322v-709zM262 1546h105l164 -117h-164l-53 93l-52 -93h-166z" />
<glyph unicode="&#xf5;" d="M389 1096q0 90 -82 90q-78 0 -78 -90v-842q0 -92 78 -92q82 0 82 92v842zM545 319q0 -319 -238 -319q-236 0 -235 319v709q0 322 235 322q238 0 238 -322v-709zM105 1429q0 51 27.5 84t74.5 33q27 0 57.5 -7t59.5 -15l54 -16q26 -7 42 -7q20 0 29.5 13.5t11.5 31.5h68 q0 -59 -28 -88t-69 -29q-27 0 -56 8l-58 14q-29 7 -54.5 14.5t-44.5 7.5q-23 0 -35 -9.5t-14 -34.5h-65z" />
<glyph unicode="&#xf6;" d="M389 1096q0 90 -82 90q-78 0 -78 -90v-842q0 -92 78 -92q82 0 82 92v842zM545 319q0 -319 -238 -319q-236 0 -235 319v709q0 322 235 322q238 0 238 -322v-709zM100 1546h109v-117h-109v117zM407 1429v117h113v-117h-113z" />
<glyph unicode="&#xf7;" horiz-adv-x="690" d="M23 999h641v-145h-641v145zM252 1348h164v-220h-164v220zM252 725h164v-219h-164v219z" />
<glyph unicode="&#xf8;" d="M389 1096q0 90 -82 90q-78 0 -78 -90v-842q0 -92 78 -92q82 0 82 92v842zM545 319q0 -319 -238 -319q-236 0 -235 319v709q0 322 235 322q238 0 238 -322v-709zM478.884 1351.44l-258.855 -1351.44h-84.0527l260.342 1351.44h82.5664z" />
<glyph unicode="&#xf9;" d="M229 254q0 -90 80 -90t80 90v1096h156v-1350h-156v55q-29 -55 -131 -55q-186 0 -186 319v1031h157v-1096zM274 1546l109 -117h-92l-213 117h196z" />
<glyph unicode="&#xfa;" d="M229 254q0 -90 80 -90t80 90v1096h156v-1350h-156v55q-29 -55 -131 -55q-186 0 -186 319v1031h157v-1096zM500 1546l-213 -117h-94l108 117h199z" />
<glyph unicode="&#xfb;" d="M229 254q0 -90 80 -90t80 90v1096h156v-1350h-156v55q-29 -55 -131 -55q-186 0 -186 319v1031h157v-1096zM254 1546h105l164 -117h-164l-53 93l-52 -93h-166z" />
<glyph unicode="&#xfc;" d="M229 254q0 -90 80 -90t80 90v1096h156v-1350h-156v55q-29 -55 -131 -55q-186 0 -186 319v1031h157v-1096zM98 1546h109v-117h-109v117zM405 1429v117h113v-117h-113z" />
<glyph unicode="&#xfd;" horiz-adv-x="559" d="M43 -158q137 8 162 158l-187 1350h162l74 -600l25 -287l24 285l74 602h164l-181 -1350q-23 -166 -105.5 -242.5t-211.5 -76.5v161zM463 1546l-213 -117h-94l108 117h199z" />
<glyph unicode="&#xfe;" d="M389 1096q0 90 -80 90t-80 -90v-842q0 -92 80 -92t80 92v842zM72 1817h157v-523q27 55 129 56q186 0 187 -322v-709q0 -319 -205 -319q-72 0 -111 27v-346h-157v2136z" />
<glyph unicode="&#xff;" horiz-adv-x="559" d="M43 -158q137 8 162 158l-187 1350h162l74 -600l25 -287l24 285l74 602h164l-181 -1350q-23 -166 -105.5 -242.5t-211.5 -76.5v161zM71 1546h109v-117h-109v117zM378 1429v117h113v-117h-113z" />
<glyph unicode="&#x131;" horiz-adv-x="319" d="M244 0h-158v1350h158v-1350z" />
<glyph unicode="&#x152;" horiz-adv-x="894" d="M436 1530q0 106 -90 106q-92 0 -92 -106v-1243q0 -104 92 -105q90 0 90 105v1243zM852 182v-182h-416v45q-39 -45 -125 -45q-240 0 -239 399v1018q0 399 235 400q88 0 129 -48v48h416v-181h-234v-618h113v-182h-113v-654h234z" />
<glyph unicode="&#x153;" horiz-adv-x="882" d="M684 805v291q0 90 -82 90q-78 0 -78 -90v-291h160zM369 1096q0 90 -82 90q-78 0 -78 -90v-842q0 -92 78 -92q82 0 82 92v842zM524 254q0 -92 78 -92q82 0 82 92v260h156v-195q0 -319 -238 -319q-100 0 -158 80q-59 -80 -157 -80q-233 0 -234 319v709q0 322 234 322 q100 0 157 -82q57 82 158 82q238 0 238 -322v-383h-316v-391z" />
<glyph unicode="&#x178;" horiz-adv-x="659" d="M238 0v776l-238 1041h186l109 -562l35 -243l32 243l109 562h188l-239 -1041v-776h-182zM114 2015h109v-117h-109v117zM421 1898v117h113v-117h-113z" />
<glyph unicode="&#x2c6;" horiz-adv-x="471" d="M186 2015h105l164 -117h-164l-53 93l-52 -93h-166z" />
<glyph unicode="&#x2da;" horiz-adv-x="315" d="M61 1964q0 -39 29 -66.5t68 -27.5q37 0 65.5 27.5t28.5 66.5t-28.5 67.5t-65.5 28.5q-39 0 -68 -28.5t-29 -67.5zM29 1964q0 53 37.5 92t91.5 39q51 0 90 -39t39 -92q0 -51 -39 -89t-90 -38q-53 0 -91 38t-38 89z" />
<glyph unicode="&#x2dc;" horiz-adv-x="473" d="M27 1898q0 51 27.5 84t74.5 33q27 0 57.5 -7t59.5 -15l54 -16q26 -7 42 -7q20 0 29.5 13.5t11.5 31.5h68q0 -59 -28 -88t-69 -29q-27 0 -56 8l-58 14q-29 7 -54.5 14.5t-44.5 7.5q-23 0 -35 -9.5t-14 -34.5h-65z" />
<glyph unicode="&#x2000;" horiz-adv-x="1046" />
<glyph unicode="&#x2001;" horiz-adv-x="2095" />
<glyph unicode="&#x2002;" horiz-adv-x="1046" />
<glyph unicode="&#x2003;" horiz-adv-x="2095" />
<glyph unicode="&#x2004;" horiz-adv-x="698" />
<glyph unicode="&#x2005;" horiz-adv-x="522" />
<glyph unicode="&#x2006;" horiz-adv-x="348" />
<glyph unicode="&#x2007;" horiz-adv-x="348" />
<glyph unicode="&#x2008;" horiz-adv-x="260" />
<glyph unicode="&#x2009;" horiz-adv-x="417" />
<glyph unicode="&#x200a;" horiz-adv-x="114" />
<glyph unicode="&#x2010;" horiz-adv-x="376" d="M37 999h303v-145h-303v145z" />
<glyph unicode="&#x2011;" horiz-adv-x="376" d="M37 999h303v-145h-303v145z" />
<glyph unicode="&#x2012;" horiz-adv-x="376" d="M37 999h303v-145h-303v145z" />
<glyph unicode="&#x2013;" horiz-adv-x="620" d="M37 999h530v-145h-530v145z" />
<glyph unicode="&#x2014;" horiz-adv-x="995" d="M37 999h909v-145h-909v145z" />
<glyph unicode="&#x2018;" horiz-adv-x="227" d="M203 1470h-164v181q0 86 33.5 126t101.5 40v-80q-72 0 -72 -78h101v-189z" />
<glyph unicode="&#x2019;" horiz-adv-x="241" d="M53 1819h162v-181q0 -92 -34 -128.5t-101 -36.5v77q72 0 72 80h-99v189z" />
<glyph unicode="&#x201a;" horiz-adv-x="256" d="M41 217h164v-180q0 -86 -34 -126t-103 -40v80q74 0 73 78h-100v188z" />
<glyph unicode="&#x201c;" horiz-adv-x="475" d="M225 1470h-164v181q0 86 34 126t102 40v-80q-72 0 -72 -78h100v-189zM453 1470h-164v181q0 86 33.5 126t101.5 40v-80q-72 0 -72 -78h101v-189z" />
<glyph unicode="&#x201d;" horiz-adv-x="460" d="M274 1819h164v-181q0 -92 -33.5 -128.5t-101.5 -36.5v77q72 0 72 80h-101v189zM47 1819h164v-181q0 -92 -34 -128.5t-101 -36.5v77q72 0 71 80h-100v189z" />
<glyph unicode="&#x201e;" horiz-adv-x="466" d="M264 217h164v-180q0 -86 -34 -126t-103 -40v80q74 0 73 78h-100v188zM41 217h164v-180q0 -86 -34 -126t-103 -40v80q74 0 73 78h-100v188z" />
<glyph unicode="&#x2022;" horiz-adv-x="1038" d="M41 743q0 98 38 186.5t103.5 154t152.5 103.5t187 38t187.5 -38t153 -103.5t103.5 -153.5t38 -187q0 -102 -38 -189t-103.5 -152.5t-152.5 -102.5t-188 -37q-100 0 -187 37t-152.5 102.5t-103.5 152.5t-38 189z" />
<glyph unicode="&#x2026;" horiz-adv-x="1888" d="M320 217h164v-217h-164v217zM856 217h164v-217h-164v217zM1393 217h164v-217h-164v217z" />
<glyph unicode="&#x202f;" horiz-adv-x="417" />
<glyph unicode="&#x2039;" horiz-adv-x="800" d="M664 80h-162l-355 506l355 504h164l-291 -504z" />
<glyph unicode="&#x203a;" horiz-adv-x="821" d="M154 1090h168l348 -504l-348 -506h-168l297 506z" />
<glyph unicode="&#x205f;" horiz-adv-x="522" />
<glyph unicode="&#x20ac;" horiz-adv-x="681" d="M436 625h172v-226q0 -399 -262 -399q-274 0 -274 399v1018q0 399 274 400q262 0 262 -400v-166h-172v279q0 106 -90 106q-92 0 -92 -106v-1243q0 -104 92 -105q90 0 90 105v338zM17.2129 1051.44h583.762v-85.3281h-583.762v85.3281zM17.2129 843.828h583.762v-85.3281 h-583.762v85.3281z" />
<glyph unicode="&#x2122;" horiz-adv-x="1095" d="M68 1817h376v-144h-131v-563h-139v563h-106v144zM506 1110v707h145l90 -600l90 600h150v-707h-107v506l-77 -506h-113l-74 492v-492h-104z" />
<glyph unicode="&#xe000;" horiz-adv-x="1350" d="M0 1350h1350v-1350h-1350v1350z" />
<glyph unicode="&#xfb01;" horiz-adv-x="581" d="M528 0h-155v1186h-156v-1186h-156v1186h-53v164h53v147q0 319 261 320h206v-164h-206q-104 0 -105 -90v-213h311v-1350z" />
<glyph unicode="&#xfb02;" horiz-adv-x="581" d="M373 1350v303h-51q-104 0 -105 -90v-213h156zM528 0h-155v1186h-156v-1186h-156v1186h-53v164h53v147q0 319 261 320h206v-1817z" />
<glyph unicode="&#xfb03;" horiz-adv-x="942" d="M868 1569h-157v248h157v-248zM868 0h-157v1350h157v-1350zM319 1350h59v147q0 319 260 320v-164q-104 0 -104 -90v-213h72v-164h-72v-1186h-156v1186h-59v164zM0 1350h59v147q0 319 260 320v-164q-104 0 -104 -90v-213h72v-164h-72v-1186h-156v1186h-59v164z" />
<glyph unicode="&#xfb04;" horiz-adv-x="903" d="M692 1817h156v-1817h-156v1817zM319 1350h59v147q0 319 260 320v-164q-104 0 -104 -90v-213h72v-164h-72v-1186h-156v1186h-59v164zM0 1350h59v147q0 319 260 320v-164q-104 0 -104 -90v-213h72v-164h-72v-1186h-156v1186h-59v164z" />
</font>
</defs>
</svg>
